<?xml version="1.0" encoding="UTF-8"?>
<svg width="512" height="512" viewBox="0 0 512 512" fill="none" xmlns="http://www.w3.org/2000/svg">
  <rect width="512" height="512" fill="#1A1A1A"/>
  <path d="M256 64C150.144 64 64 150.144 64 256C64 361.856 150.144 448 256 448C361.856 448 448 361.856 448 256C448 150.144 361.856 64 256 64ZM256 416C167.634 416 96 344.366 96 256C96 167.634 167.634 96 256 96C344.366 96 416 167.634 416 256C416 344.366 344.366 416 256 416Z" fill="#90CAF9"/>
  <path d="M256 128C185.307 128 128 185.307 128 256C128 326.693 185.307 384 256 384C326.693 384 384 326.693 384 256C384 185.307 326.693 128 256 128ZM256 352C203.065 352 160 308.935 160 256C160 203.065 203.065 160 256 160C308.935 160 352 203.065 352 256C352 308.935 308.935 352 256 352Z" fill="#F48FB1"/>
</svg> 